<svg xmlns="http://www.w3.org/2000/svg" viewBox="0 0 200 80" role="img" aria-label="Karavan silueta" fill="none" stroke="currentColor" stroke-width="2" stroke-linecap="round" stroke-linejoin="round">
  <path d="M14 60 C14 52 22 48 30 48 L46 32 C50 28 56 24 64 24 L154 24 C162 24 168 28 170 34 L184 44 C190 48 192 52 192 60" />
  <path d="M62 24 L62 48 M104 24 L104 48 M148 24 L148 48" />
  <line x1="20" y1="60" x2="38" y2="60" />
  <line x1="58" y1="60" x2="142" y2="60" />
  <line x1="162" y1="60" x2="186" y2="60" />
  <circle cx="48" cy="60" r="9" />
  <circle cx="152" cy="60" r="9" />
</svg>
