<svg xmlns="http://www.w3.org/2000/svg" viewBox="0 0 200 80" role="img" aria-label="Limuzina silueta" fill="none" stroke="currentColor" stroke-width="2" stroke-linecap="round" stroke-linejoin="round">
  <path d="M14 60 C14 52 22 48 30 48 L48 36 C52 31 58 28 66 28 L132 28 C140 28 146 31 150 36 L172 46 C180 48 186 52 186 60" />
  <path d="M62 28 L62 48 M104 28 L104 48 M138 28 L146 48" />
  <line x1="20" y1="60" x2="38" y2="60" />
  <line x1="58" y1="60" x2="142" y2="60" />
  <line x1="162" y1="60" x2="180" y2="60" />
  <circle cx="48" cy="60" r="9" />
  <circle cx="152" cy="60" r="9" />
</svg>
